<svg width="20" height="17" viewBox="0 0 20 17" fill="none" xmlns="http://www.w3.org/2000/svg">
<path d="M18.3774 0.189697H1.87744C1.47962 0.189697 1.09809 0.347732 0.816781 0.629037C0.535477 0.910342 0.377441 1.29187 0.377441 1.6897V15.1897C0.377441 15.5875 0.535477 15.9691 0.816781 16.2504C1.09809 16.5317 1.47962 16.6897 1.87744 16.6897H18.3774C18.7753 16.6897 19.1568 16.5317 19.4381 16.2504C19.7194 15.9691 19.8774 15.5875 19.8774 15.1897V1.6897C19.8774 1.29187 19.7194 0.910342 19.4381 0.629037C19.1568 0.347732 18.7753 0.189697 18.3774 0.189697ZM18.3774 15.1897H1.87744V1.6897H18.3774V15.1897ZM14.6274 4.6897C14.6274 5.88317 14.1533 7.02776 13.3094 7.87168C12.4655 8.71559 11.3209 9.1897 10.1274 9.1897C8.93397 9.1897 7.78937 8.71559 6.94546 7.87168C6.10155 7.02776 5.62744 5.88317 5.62744 4.6897C5.62744 4.49078 5.70646 4.30002 5.84711 4.15937C5.98776 4.01872 6.17853 3.9397 6.37744 3.9397C6.57635 3.9397 6.76712 4.01872 6.90777 4.15937C7.04842 4.30002 7.12744 4.49078 7.12744 4.6897C7.12744 5.48535 7.44351 6.24841 8.00612 6.81102C8.56873 7.37363 9.33179 7.6897 10.1274 7.6897C10.9231 7.6897 11.6862 7.37363 12.2488 6.81102C12.8114 6.24841 13.1274 5.48535 13.1274 4.6897C13.1274 4.49078 13.2065 4.30002 13.3471 4.15937C13.4878 4.01872 13.6785 3.9397 13.8774 3.9397C14.0764 3.9397 14.2671 4.01872 14.4078 4.15937C14.5484 4.30002 14.6274 4.49078 14.6274 4.6897Z" fill="#42CE8B"/>
</svg>
