<svg width="23" height="21" viewBox="0 0 23 21" fill="none" xmlns="http://www.w3.org/2000/svg">
<path d="M16.6274 5.8147C16.6274 6.0372 16.5615 6.25471 16.4378 6.43971C16.3142 6.62472 16.1385 6.76891 15.933 6.85406C15.7274 6.93921 15.5012 6.96149 15.283 6.91808C15.0647 6.87467 14.8643 6.76753 14.7069 6.61019C14.5496 6.45286 14.4425 6.2524 14.3991 6.03417C14.3557 5.81595 14.3779 5.58975 14.4631 5.38418C14.5482 5.17861 14.6924 5.00291 14.8774 4.87929C15.0624 4.75568 15.2799 4.6897 15.5024 4.6897C15.8008 4.6897 16.087 4.80822 16.2979 5.0192C16.5089 5.23018 16.6274 5.51633 16.6274 5.8147ZM22.6274 6.9397C22.6275 7.0632 22.5971 7.18482 22.5389 7.29374C22.4807 7.40267 22.3964 7.49553 22.2937 7.56407L20.3774 8.84095V10.6897C20.3747 13.2747 19.3466 15.7531 17.5187 17.581C15.6908 19.4089 13.2125 20.437 10.6274 20.4397H2.37744C2.09484 20.4397 1.81799 20.3599 1.57878 20.2094C1.33957 20.0589 1.14773 19.8439 1.02536 19.5892C0.902991 19.3345 0.855071 19.0504 0.887119 18.7696C0.919167 18.4888 1.02988 18.2228 1.20651 18.0022L1.21588 17.9909L9.12744 8.49876V6.64814C9.12744 3.51501 11.639 0.954698 14.7253 0.939698H14.7524C15.9474 0.939342 17.1113 1.31952 18.0757 2.02511C19.04 2.73071 19.7546 3.72508 20.1159 4.86407L22.2937 6.31532C22.3964 6.38387 22.4807 6.47673 22.5389 6.58565C22.5971 6.69457 22.6275 6.81619 22.6274 6.9397ZM20.5256 6.9397L19.0556 5.95907C18.9022 5.85709 18.7918 5.70225 18.7453 5.52407C18.5149 4.64056 17.998 3.85843 17.2754 3.30026C16.5528 2.74209 15.6655 2.43943 14.7524 2.4397H14.7318C12.4687 2.45095 10.6274 4.33814 10.6274 6.64814V8.7697C10.6277 8.94537 10.5664 9.11558 10.454 9.25063L2.37744 18.9397H4.89932L11.5499 10.9597C11.6123 10.8818 11.6895 10.8172 11.7771 10.7696C11.8647 10.7219 11.9609 10.6922 12.0602 10.6822C12.1594 10.6722 12.2596 10.6821 12.355 10.7113C12.4503 10.7404 12.5389 10.7884 12.6155 10.8522C12.6922 10.916 12.7553 10.9945 12.8012 11.083C12.8471 11.1716 12.8749 11.2684 12.883 11.3678C12.8911 11.4672 12.8792 11.5672 12.8482 11.662C12.8171 11.7567 12.7675 11.8443 12.7021 11.9197L6.854 18.9397H10.6274C12.8147 18.9372 14.9117 18.0672 16.4583 16.5206C18.005 14.974 18.875 12.877 18.8774 10.6897V8.4397C18.8774 8.31619 18.9078 8.19457 18.966 8.08565C19.0242 7.97673 19.1085 7.88387 19.2112 7.81532L20.5256 6.9397Z" fill="#788D83"/>
</svg>
