<svg width="22" height="22" viewBox="0 0 22 22" fill="none" xmlns="http://www.w3.org/2000/svg">
<path d="M21.7096 20.5073C20.1124 17.6356 17.6512 15.5764 14.7789 14.6003C16.1997 13.7206 17.3035 12.3802 17.9209 10.7849C18.5384 9.18967 18.6352 7.4277 18.1966 5.76964C17.758 4.11158 16.8082 2.6491 15.493 1.6068C14.1779 0.564497 12.5701 0 10.9167 0C9.2632 0 7.65545 0.564497 6.34031 1.6068C5.02517 2.6491 4.07537 4.11158 3.63675 5.76964C3.19814 7.4277 3.29498 9.18967 3.91239 10.7849C4.52981 12.3802 5.63366 13.7206 7.05443 14.6003C4.18212 15.5753 1.7209 17.6345 0.123781 20.5073C0.0652117 20.6066 0.0263631 20.7171 0.00952734 20.8323C-0.00730843 20.9475 -0.00179036 21.065 0.025756 21.178C0.0533023 21.2909 0.102319 21.3969 0.169914 21.4899C0.237509 21.5828 0.322312 21.6607 0.419322 21.719C0.516331 21.7772 0.623581 21.8147 0.734743 21.8292C0.845905 21.8437 0.958728 21.8348 1.06656 21.8032C1.17438 21.7716 1.27503 21.7178 1.36256 21.6451C1.45009 21.5724 1.52273 21.4822 1.57619 21.3798C3.55188 17.8286 7.04394 15.7084 10.9167 15.7084C14.7894 15.7084 18.2815 17.8286 20.2572 21.3798C20.3106 21.4822 20.3832 21.5724 20.4708 21.6451C20.5583 21.7178 20.659 21.7716 20.7668 21.8032C20.8746 21.8348 20.9874 21.8437 21.0986 21.8292C21.2098 21.8147 21.317 21.7772 21.414 21.719C21.511 21.6607 21.5958 21.5828 21.6634 21.4899C21.731 21.3969 21.78 21.2909 21.8076 21.178C21.8351 21.065 21.8406 20.9475 21.8238 20.8323C21.807 20.7171 21.7681 20.6066 21.7096 20.5073ZM5.04413 7.85567C5.04413 6.64769 5.38855 5.46684 6.03383 4.46244C6.67911 3.45804 7.59628 2.67521 8.66934 2.21293C9.74241 1.75066 10.9232 1.6297 12.0623 1.86537C13.2015 2.10104 14.2479 2.68273 15.0692 3.53691C15.8905 4.39108 16.4498 5.47936 16.6764 6.66413C16.903 7.8489 16.7867 9.07695 16.3422 10.193C15.8977 11.309 15.145 12.2629 14.1793 12.934C13.2135 13.6051 12.0781 13.9633 10.9167 13.9633C9.35968 13.9616 7.86695 13.3176 6.766 12.1725C5.66504 11.0275 5.04579 9.475 5.04413 7.85567Z" fill="#267A29" fill-opacity="0.49"/>
</svg>
