<svg width="71" height="66" viewBox="0 0 71 66" fill="none" xmlns="http://www.w3.org/2000/svg">
<path d="M68.4643 60.9231H60.8571V5.07692C60.8571 3.73044 60.3228 2.4391 59.3718 1.487C58.4207 0.534888 57.1307 0 55.7857 0H15.2143C13.8693 0 12.5793 0.534888 11.6282 1.487C10.6772 2.4391 10.1429 3.73044 10.1429 5.07692V60.9231H2.53571C1.8632 60.9231 1.21823 61.1905 0.742693 61.6666C0.267155 62.1426 0 62.7883 0 63.4615C0 64.1348 0.267155 64.7804 0.742693 65.2565C1.21823 65.7326 1.8632 66 2.53571 66H68.4643C69.1368 66 69.7818 65.7326 70.2573 65.2565C70.7328 64.7804 71 64.1348 71 63.4615C71 62.7883 70.7328 62.1426 70.2573 61.6666C69.7818 61.1905 69.1368 60.9231 68.4643 60.9231ZM55.7857 60.9231H50.7143V5.07692H55.7857V60.9231ZM15.2143 5.07692H45.6429V60.9231H15.2143V5.07692ZM40.5714 34.2692C40.5714 35.0223 40.3484 35.7585 39.9304 36.3847C39.5125 37.0108 38.9184 37.4989 38.2234 37.7871C37.5284 38.0753 36.7636 38.1507 36.0258 38.0038C35.288 37.8568 34.6103 37.4942 34.0783 36.9617C33.5464 36.4292 33.1841 35.7507 33.0374 35.0121C32.8906 34.2735 32.9659 33.5079 33.2538 32.8121C33.5417 32.1163 34.0292 31.5216 34.6547 31.1032C35.2802 30.6849 36.0156 30.4615 36.7679 30.4615C37.7766 30.4615 38.7441 30.8627 39.4574 31.5768C40.1707 32.2909 40.5714 33.2594 40.5714 34.2692Z" fill="#3D724B"/>
</svg>
